<?xml version="1.0" encoding="UTF-8"?>
<svg xmlns="http://www.w3.org/2000/svg" xmlns:xlink="http://www.w3.org/1999/xlink" width="48pt" height="48pt" viewBox="0 0 48 48" version="1.1">
<g id="surface5180">
<path style=" stroke:none;fill-rule:nonzero;fill:rgb(11, 148, 70);fill-opacity:1;" d="M 45.59375 46.15625 C 43.058594 45.960938 40.21875 45.160156 37.460938 43.859375 L 37.226562 43.75 L 36.988281 43.839844 C 34.957031 44.613281 32.808594 45.007812 30.601562 45.007812 C 22 45.007812 15 39.085938 15 31.804688 C 15 24.527344 22 18.605469 30.601562 18.605469 C 39.203125 18.605469 46.199219 24.527344 46.199219 31.804688 C 46.199219 34.84375 44.949219 37.808594 42.679688 40.15625 L 42.386719 40.457031 L 42.570312 40.832031 C 43.550781 42.875 44.566406 44.660156 45.59375 46.15625 Z M 45.59375 46.15625 "/>
<path style=" stroke:none;fill-rule:nonzero;fill:rgb(11, 148, 70);fill-opacity:1;" d="M 30.601562 19.207031 C 38.871094 19.207031 45.601562 24.859375 45.601562 31.804688 C 45.601562 34.6875 44.410156 37.503906 42.246094 39.738281 L 41.667969 40.339844 L 42.027344 41.09375 C 42.796875 42.695312 43.589844 44.136719 44.390625 45.417969 C 42.261719 45.097656 39.960938 44.378906 37.714844 43.316406 L 37.253906 43.097656 L 36.773438 43.277344 C 34.8125 44.027344 32.734375 44.40625 30.601562 44.40625 C 22.328125 44.40625 15.601562 38.753906 15.601562 31.804688 C 15.601562 24.859375 22.328125 19.207031 30.601562 19.207031 M 30.601562 18.007812 C 21.652344 18.007812 14.398438 24.183594 14.398438 31.804688 C 14.398438 39.425781 21.652344 45.601562 30.601562 45.601562 C 32.953125 45.601562 35.183594 45.167969 37.203125 44.398438 C 40.257812 45.84375 43.6875 46.804688 46.800781 46.804688 C 45.390625 44.945312 44.160156 42.753906 43.109375 40.574219 C 45.414062 38.191406 46.800781 35.136719 46.800781 31.804688 C 46.800781 24.183594 39.546875 18.007812 30.601562 18.007812 Z M 30.601562 18.007812 "/>
<path style=" stroke:none;fill-rule:nonzero;fill:rgb(207, 28, 68);fill-opacity:1;" d="M 21.601562 27.601562 L 39.601562 27.601562 L 39.601562 28.800781 L 21.601562 28.800781 Z M 21.601562 27.601562 "/>
<path style=" stroke:none;fill-rule:nonzero;fill:rgb(207, 28, 68);fill-opacity:1;" d="M 21.601562 34.800781 L 39.601562 34.800781 L 39.601562 36 L 21.601562 36 Z M 21.601562 34.800781 "/>
<path style=" stroke:none;fill-rule:nonzero;fill:rgb(207, 28, 68);fill-opacity:1;" d="M 2.40625 29.359375 C 3.433594 27.859375 4.449219 26.074219 5.429688 24.035156 L 5.613281 23.65625 L 5.320312 23.355469 C 3.050781 21.007812 1.800781 18.042969 1.800781 15.007812 C 1.800781 7.726562 8.796875 1.804688 17.398438 1.804688 C 26 1.804688 33 7.726562 33 15.007812 C 33 22.285156 26 28.207031 17.398438 28.207031 C 15.191406 28.207031 13.042969 27.8125 11.011719 27.039062 L 10.773438 26.949219 L 10.542969 27.058594 C 7.785156 28.359375 4.941406 29.160156 2.40625 29.359375 Z M 2.40625 29.359375 "/>
<path style=" stroke:none;fill-rule:nonzero;fill:rgb(207, 28, 68);fill-opacity:1;" d="M 17.398438 2.40625 C 25.671875 2.40625 32.398438 8.058594 32.398438 15.007812 C 32.398438 21.953125 25.671875 27.605469 17.398438 27.605469 C 15.265625 27.605469 13.1875 27.226562 11.226562 26.480469 L 10.75 26.296875 L 10.285156 26.515625 C 8.039062 27.578125 5.742188 28.296875 3.609375 28.617188 C 4.414062 27.339844 5.203125 25.894531 5.972656 24.292969 L 6.335938 23.539062 L 5.753906 22.9375 C 3.589844 20.703125 2.398438 17.886719 2.398438 15.007812 C 2.398438 8.058594 9.128906 2.40625 17.398438 2.40625 M 17.398438 1.207031 C 8.453125 1.207031 1.199219 7.386719 1.199219 15.007812 C 1.199219 18.335938 2.585938 21.390625 4.890625 23.773438 C 3.839844 25.953125 2.609375 28.148438 1.199219 30.007812 C 4.3125 30.007812 7.742188 29.042969 10.796875 27.601562 C 12.816406 28.371094 15.046875 28.804688 17.398438 28.804688 C 26.347656 28.804688 33.601562 22.628906 33.601562 15.007812 C 33.601562 7.386719 26.347656 1.207031 17.398438 1.207031 Z M 17.398438 1.207031 "/>
<path style=" stroke:none;fill-rule:nonzero;fill:rgb(11, 148, 70);fill-opacity:1;" d="M 8.398438 10.800781 L 26.398438 10.800781 L 26.398438 12 L 8.398438 12 Z M 8.398438 10.800781 "/>
<path style=" stroke:none;fill-rule:nonzero;fill:rgb(11, 148, 70);fill-opacity:1;" d="M 8.398438 18 L 26.398438 18 L 26.398438 19.199219 L 8.398438 19.199219 Z M 8.398438 18 "/>
</g>
</svg>
