<?xml version="1.0" encoding="UTF-8"?>
<svg xmlns="http://www.w3.org/2000/svg" xmlns:xlink="http://www.w3.org/1999/xlink" width="48pt" height="48pt" viewBox="0 0 48 48" version="1.1">
<g id="surface506">
<path style=" stroke:none;fill-rule:nonzero;fill:rgb(93.333333%,24.313725%,32.941176%);fill-opacity:1;" d="M 6.238281 12.960938 C 5.710938 12.960938 5.28125 13.390625 5.28125 13.921875 C 5.28125 14.449219 5.710938 14.878906 6.238281 14.878906 C 6.769531 14.878906 7.199219 14.449219 7.199219 13.921875 C 7.199219 13.390625 6.769531 12.960938 6.238281 12.960938 Z M 6.238281 12.960938 "/>
<path style=" stroke:none;fill-rule:nonzero;fill:rgb(94.509804%,73.72549%,9.803922%);fill-opacity:1;" d="M 36.960938 5.761719 C 36.695312 5.761719 36.480469 5.976562 36.480469 6.238281 C 36.480469 6.503906 36.695312 6.71875 36.960938 6.71875 C 37.226562 6.71875 37.441406 6.503906 37.441406 6.238281 C 37.441406 5.976562 37.226562 5.761719 36.960938 5.761719 Z M 36.960938 5.761719 "/>
<path style=" stroke:none;fill-rule:nonzero;fill:rgb(98.823529%,87.843137%,63.529412%);fill-opacity:1;" d="M 24 6.238281 C 14.191406 6.238281 6.238281 14.191406 6.238281 24 C 6.238281 33.808594 14.191406 41.761719 24 41.761719 C 33.808594 41.761719 41.761719 33.808594 41.761719 24 C 41.761719 14.191406 33.808594 6.238281 24 6.238281 Z M 24 6.238281 "/>
<path style=" stroke:none;fill-rule:nonzero;fill:rgb(94.509804%,73.72549%,9.803922%);fill-opacity:1;" d="M 39.839844 5.28125 C 38.78125 5.28125 37.921875 6.140625 37.921875 7.199219 C 37.921875 8.261719 38.78125 9.121094 39.839844 9.121094 C 40.898438 9.121094 41.761719 8.261719 41.761719 7.199219 C 41.761719 6.140625 40.898438 5.28125 39.839844 5.28125 Z M 39.839844 5.28125 "/>
<path style=" stroke:none;fill-rule:nonzero;fill:rgb(93.333333%,24.313725%,32.941176%);fill-opacity:1;" d="M 41.761719 10.558594 C 41.230469 10.558594 40.800781 10.988281 40.800781 11.519531 C 40.800781 12.050781 41.230469 12.480469 41.761719 12.480469 C 42.289062 12.480469 42.71875 12.050781 42.71875 11.519531 C 42.71875 10.988281 42.289062 10.558594 41.761719 10.558594 Z M 41.761719 10.558594 "/>
<path style=" stroke:none;fill-rule:nonzero;fill:rgb(98.431373%,80.392157%,34.901961%);fill-opacity:1;" d="M 38.878906 35.519531 C 38.351562 35.519531 37.921875 35.949219 37.921875 36.480469 C 37.921875 37.011719 38.351562 37.441406 38.878906 37.441406 C 39.410156 37.441406 39.839844 37.011719 39.839844 36.480469 C 39.839844 35.949219 39.410156 35.519531 38.878906 35.519531 Z M 7.199219 28.320312 C 6.140625 28.320312 5.28125 29.179688 5.28125 30.238281 C 5.28125 31.300781 6.140625 32.160156 7.199219 32.160156 C 8.261719 32.160156 9.121094 31.300781 9.121094 30.238281 C 9.121094 29.179688 8.261719 28.320312 7.199219 28.320312 Z M 7.199219 28.320312 "/>
<path style=" stroke:none;fill-rule:nonzero;fill:rgb(93.333333%,24.313725%,32.941176%);fill-opacity:1;" d="M 12 40.800781 C 11.46875 40.800781 11.039062 41.230469 11.039062 41.761719 C 11.039062 42.289062 11.46875 42.71875 12 42.71875 C 12.53125 42.71875 12.960938 42.289062 12.960938 41.761719 C 12.960938 41.230469 12.53125 40.800781 12 40.800781 Z M 12 40.800781 "/>
<path style=" stroke:none;fill-rule:nonzero;fill:rgb(100%,100%,100%);fill-opacity:1;" d="M 8.878906 24.480469 C 8.21875 24.480469 7.679688 25.015625 7.679688 25.679688 C 7.679688 26.34375 8.21875 26.878906 8.878906 26.878906 C 9.542969 26.878906 10.078125 26.34375 10.078125 25.679688 C 10.078125 25.015625 9.542969 24.480469 8.878906 24.480469 Z M 8.878906 24.480469 "/>
<path style=" stroke:none;fill-rule:nonzero;fill:rgb(94.509804%,73.72549%,9.803922%);fill-opacity:1;" d="M 10.078125 31.679688 C 9.816406 31.679688 9.601562 31.894531 9.601562 32.160156 C 9.601562 32.425781 9.816406 32.640625 10.078125 32.640625 C 10.34375 32.640625 10.558594 32.425781 10.558594 32.160156 C 10.558594 31.894531 10.34375 31.679688 10.078125 31.679688 Z M 10.078125 31.679688 "/>
<path style=" stroke:none;fill-rule:nonzero;fill:rgb(100%,100%,100%);fill-opacity:1;" d="M 38.398438 15.839844 C 38.136719 15.839844 37.921875 16.054688 37.921875 16.320312 C 37.921875 16.585938 38.136719 16.800781 38.398438 16.800781 C 38.664062 16.800781 38.878906 16.585938 38.878906 16.320312 C 38.878906 16.054688 38.664062 15.839844 38.398438 15.839844 Z M 38.398438 15.839844 "/>
<path style=" stroke:none;fill-rule:nonzero;fill:rgb(28.627451%,52.156863%,75.686275%);fill-opacity:1;" d="M 16.800781 34.703125 C 14.878906 34.703125 13.296875 33.121094 13.296875 31.199219 L 13.296875 16.800781 C 13.296875 14.878906 14.878906 13.296875 16.800781 13.296875 L 31.199219 13.296875 C 33.121094 13.296875 34.703125 14.878906 34.703125 16.800781 L 34.703125 31.199219 C 34.703125 33.121094 33.121094 34.703125 31.199219 34.703125 Z M 16.800781 34.703125 "/>
<path style=" stroke:none;fill-rule:nonzero;fill:rgb(27.843137%,16.862745%,16.078431%);fill-opacity:1;" d="M 31.199219 13.632812 C 32.929688 13.632812 34.367188 15.070312 34.367188 16.800781 L 34.367188 31.199219 C 34.367188 32.929688 32.929688 34.367188 31.199219 34.367188 L 16.800781 34.367188 C 15.070312 34.367188 13.632812 32.929688 13.632812 31.199219 L 13.632812 16.800781 C 13.632812 15.070312 15.070312 13.632812 16.800781 13.632812 L 31.199219 13.632812 M 31.199219 12.960938 L 16.800781 12.960938 C 14.6875 12.960938 12.960938 14.6875 12.960938 16.800781 L 12.960938 31.199219 C 12.960938 33.3125 14.6875 35.039062 16.800781 35.039062 L 31.199219 35.039062 C 33.3125 35.039062 35.039062 33.3125 35.039062 31.199219 L 35.039062 16.800781 C 35.039062 14.6875 33.3125 12.960938 31.199219 12.960938 Z M 31.199219 12.960938 "/>
<path style=" stroke:none;fill-rule:nonzero;fill:rgb(99.215686%,98.823529%,93.333333%);fill-opacity:1;" d="M 32.878906 22.992188 L 32.878906 30.71875 C 32.878906 31.921875 31.921875 32.878906 30.71875 32.878906 L 17.28125 32.878906 C 16.078125 32.878906 15.121094 31.921875 15.121094 30.71875 L 15.121094 17.28125 C 15.121094 16.078125 16.078125 15.121094 17.28125 15.121094 L 30.71875 15.121094 C 31.921875 15.121094 32.878906 16.078125 32.878906 17.28125 L 32.878906 22.992188 "/>
<path style=" stroke:none;fill-rule:nonzero;fill:rgb(27.843137%,16.862745%,16.078431%);fill-opacity:1;" d="M 32.878906 22.753906 C 32.734375 22.753906 32.640625 22.65625 32.640625 22.511719 L 32.640625 20.640625 C 32.640625 20.496094 32.734375 20.398438 32.878906 20.398438 C 33.023438 20.398438 33.121094 20.496094 33.121094 20.640625 L 33.121094 22.511719 C 33.121094 22.65625 33.023438 22.753906 32.878906 22.753906 Z M 32.878906 19.441406 C 32.734375 19.441406 32.640625 19.34375 32.640625 19.199219 L 32.640625 18.238281 C 32.640625 18.097656 32.734375 18 32.878906 18 C 33.023438 18 33.121094 18.097656 33.121094 18.238281 L 33.121094 19.199219 C 33.121094 19.34375 33.023438 19.441406 32.878906 19.441406 Z M 32.878906 19.441406 "/>
<path style=" stroke:none;fill-rule:nonzero;fill:rgb(27.843137%,16.862745%,16.078431%);fill-opacity:1;" d="M 30.71875 33.121094 L 17.28125 33.121094 C 15.9375 33.121094 14.878906 32.0625 14.878906 30.71875 L 14.878906 17.28125 C 14.878906 15.9375 15.9375 14.878906 17.28125 14.878906 L 29.472656 14.878906 C 29.617188 14.878906 29.710938 14.976562 29.710938 15.121094 C 29.710938 15.265625 29.617188 15.359375 29.472656 15.359375 L 17.28125 15.359375 C 16.222656 15.359375 15.359375 16.222656 15.359375 17.28125 L 15.359375 30.71875 C 15.359375 31.777344 16.222656 32.640625 17.28125 32.640625 L 30.71875 32.640625 C 31.777344 32.640625 32.640625 31.777344 32.640625 30.71875 L 32.640625 23.808594 C 32.640625 23.664062 32.734375 23.566406 32.878906 23.566406 C 33.023438 23.566406 33.121094 23.664062 33.121094 23.808594 L 33.121094 30.71875 C 33.121094 32.0625 32.0625 33.121094 30.71875 33.121094 Z M 30.71875 33.121094 "/>
<path style=" stroke:none;fill-rule:nonzero;fill:rgb(28.627451%,52.156863%,75.686275%);fill-opacity:1;" d="M 22.320312 20.832031 C 22.320312 21.121094 22.320312 22.320312 22.320312 22.320312 L 21.3125 22.320312 L 21.3125 24.046875 L 22.320312 24.046875 L 22.320312 29.519531 L 24.71875 29.519531 L 24.71875 24.046875 L 26.113281 24.046875 C 26.113281 24.046875 26.257812 23.230469 26.304688 22.320312 C 26.113281 22.320312 24.335938 22.320312 24.335938 22.320312 C 24.335938 22.320312 24.335938 21.265625 24.335938 21.070312 C 24.335938 20.878906 24.574219 20.640625 24.816406 20.640625 C 25.054688 20.640625 25.871094 20.640625 26.398438 20.640625 C 26.398438 20.351562 26.398438 19.441406 26.398438 18.574219 C 25.726562 18.574219 25.007812 18.574219 24.671875 18.574219 C 22.273438 18.527344 22.320312 20.542969 22.320312 20.832031 Z M 22.320312 20.832031 "/>
<path style=" stroke:none;fill-rule:nonzero;fill:rgb(27.843137%,16.862745%,16.078431%);fill-opacity:1;" d="M 24.71875 29.761719 L 22.320312 29.761719 C 22.175781 29.761719 22.078125 29.664062 22.078125 29.519531 L 22.078125 24.289062 L 21.3125 24.289062 C 21.167969 24.289062 21.070312 24.191406 21.070312 24.046875 L 21.070312 22.320312 C 21.070312 22.175781 21.167969 22.078125 21.3125 22.078125 L 22.078125 22.078125 L 22.078125 20.832031 L 22.320312 20.832031 L 22.078125 20.832031 C 22.078125 20.0625 22.320312 19.441406 22.753906 19.007812 C 23.183594 18.527344 23.855469 18.335938 24.71875 18.335938 L 26.449219 18.335938 C 26.59375 18.335938 26.6875 18.433594 26.6875 18.574219 L 26.6875 20.640625 C 26.6875 20.785156 26.59375 20.878906 26.449219 20.878906 L 24.863281 20.878906 C 24.769531 20.878906 24.625 21.023438 24.625 21.070312 L 24.625 22.078125 L 26.351562 22.078125 C 26.398438 22.078125 26.496094 22.128906 26.542969 22.175781 C 26.59375 22.222656 26.59375 22.273438 26.59375 22.367188 C 26.542969 23.28125 26.398438 24.046875 26.398438 24.097656 C 26.398438 24.191406 26.304688 24.289062 26.160156 24.289062 L 24.960938 24.289062 L 24.960938 29.519531 C 24.960938 29.664062 24.863281 29.761719 24.71875 29.761719 Z M 22.558594 29.28125 L 24.480469 29.28125 L 24.480469 24.046875 C 24.480469 23.902344 24.574219 23.808594 24.71875 23.808594 L 25.921875 23.808594 C 25.96875 23.566406 26.015625 23.089844 26.0625 22.558594 L 24.382812 22.558594 C 24.238281 22.558594 24.144531 22.464844 24.144531 22.320312 L 24.144531 21.070312 C 24.144531 20.734375 24.527344 20.398438 24.863281 20.398438 L 26.207031 20.398438 L 26.207031 18.816406 L 24.71875 18.816406 C 24 18.816406 23.425781 19.007812 23.089844 19.34375 C 22.753906 19.679688 22.558594 20.160156 22.558594 20.785156 L 22.558594 22.273438 C 22.558594 22.414062 22.464844 22.511719 22.320312 22.511719 L 21.550781 22.511719 L 21.550781 23.761719 L 22.320312 23.761719 C 22.464844 23.761719 22.558594 23.855469 22.558594 24 Z M 22.558594 29.28125 "/>
</g>
</svg>
