<?xml version="1.0" encoding="UTF-8"?>
<svg xmlns="http://www.w3.org/2000/svg" xmlns:xlink="http://www.w3.org/1999/xlink" width="48pt" height="48pt" viewBox="0 0 48 48" version="1.1">
<g id="surface992">
<path style=" stroke:none;fill-rule:nonzero;fill:rgb(93.333333%,24.313725%,32.941176%);fill-opacity:1;" d="M 7.199219 13.921875 C 7.199219 14.449219 6.769531 14.878906 6.238281 14.878906 C 5.710938 14.878906 5.28125 14.449219 5.28125 13.921875 C 5.28125 13.390625 5.710938 12.960938 6.238281 12.960938 C 6.769531 12.960938 7.199219 13.390625 7.199219 13.921875 Z M 7.199219 13.921875 "/>
<path style=" stroke:none;fill-rule:nonzero;fill:rgb(94.509804%,73.72549%,9.803922%);fill-opacity:1;" d="M 37.441406 6.238281 C 37.441406 6.503906 37.226562 6.71875 36.960938 6.71875 C 36.695312 6.71875 36.480469 6.503906 36.480469 6.238281 C 36.480469 5.976562 36.695312 5.761719 36.960938 5.761719 C 37.226562 5.761719 37.441406 5.976562 37.441406 6.238281 Z M 37.441406 6.238281 "/>
<path style=" stroke:none;fill-rule:nonzero;fill:rgb(98.823529%,87.843137%,63.529412%);fill-opacity:1;" d="M 41.761719 24 C 41.761719 33.808594 33.808594 41.761719 24 41.761719 C 14.191406 41.761719 6.238281 33.808594 6.238281 24 C 6.238281 14.191406 14.191406 6.238281 24 6.238281 C 33.808594 6.238281 41.761719 14.191406 41.761719 24 Z M 41.761719 24 "/>
<path style=" stroke:none;fill-rule:nonzero;fill:rgb(94.509804%,73.72549%,9.803922%);fill-opacity:1;" d="M 41.761719 7.199219 C 41.761719 8.261719 40.898438 9.121094 39.839844 9.121094 C 38.78125 9.121094 37.921875 8.261719 37.921875 7.199219 C 37.921875 6.140625 38.78125 5.28125 39.839844 5.28125 C 40.898438 5.28125 41.761719 6.140625 41.761719 7.199219 Z M 41.761719 7.199219 "/>
<path style=" stroke:none;fill-rule:nonzero;fill:rgb(93.333333%,24.313725%,32.941176%);fill-opacity:1;" d="M 42.71875 11.519531 C 42.71875 12.050781 42.289062 12.480469 41.761719 12.480469 C 41.230469 12.480469 40.800781 12.050781 40.800781 11.519531 C 40.800781 10.988281 41.230469 10.558594 41.761719 10.558594 C 42.289062 10.558594 42.71875 10.988281 42.71875 11.519531 Z M 42.71875 11.519531 "/>
<path style=" stroke:none;fill-rule:nonzero;fill:rgb(98.431373%,80.392157%,34.901961%);fill-opacity:1;" d="M 39.839844 36.480469 C 39.839844 37.011719 39.410156 37.441406 38.878906 37.441406 C 38.351562 37.441406 37.921875 37.011719 37.921875 36.480469 C 37.921875 35.949219 38.351562 35.519531 38.878906 35.519531 C 39.410156 35.519531 39.839844 35.949219 39.839844 36.480469 Z M 39.839844 36.480469 "/>
<path style=" stroke:none;fill-rule:nonzero;fill:rgb(98.431373%,80.392157%,34.901961%);fill-opacity:1;" d="M 9.121094 30.238281 C 9.121094 31.300781 8.261719 32.160156 7.199219 32.160156 C 6.140625 32.160156 5.28125 31.300781 5.28125 30.238281 C 5.28125 29.179688 6.140625 28.320312 7.199219 28.320312 C 8.261719 28.320312 9.121094 29.179688 9.121094 30.238281 Z M 9.121094 30.238281 "/>
<path style=" stroke:none;fill-rule:nonzero;fill:rgb(93.333333%,24.313725%,32.941176%);fill-opacity:1;" d="M 12.960938 41.761719 C 12.960938 42.289062 12.53125 42.71875 12 42.71875 C 11.46875 42.71875 11.039062 42.289062 11.039062 41.761719 C 11.039062 41.230469 11.46875 40.800781 12 40.800781 C 12.53125 40.800781 12.960938 41.230469 12.960938 41.761719 Z M 12.960938 41.761719 "/>
<path style=" stroke:none;fill-rule:nonzero;fill:rgb(100%,100%,100%);fill-opacity:1;" d="M 10.078125 25.679688 C 10.078125 26.34375 9.542969 26.878906 8.878906 26.878906 C 8.21875 26.878906 7.679688 26.34375 7.679688 25.679688 C 7.679688 25.015625 8.21875 24.480469 8.878906 24.480469 C 9.542969 24.480469 10.078125 25.015625 10.078125 25.679688 Z M 10.078125 25.679688 "/>
<path style=" stroke:none;fill-rule:nonzero;fill:rgb(94.509804%,73.72549%,9.803922%);fill-opacity:1;" d="M 10.558594 32.160156 C 10.558594 32.425781 10.34375 32.640625 10.078125 32.640625 C 9.816406 32.640625 9.601562 32.425781 9.601562 32.160156 C 9.601562 31.894531 9.816406 31.679688 10.078125 31.679688 C 10.34375 31.679688 10.558594 31.894531 10.558594 32.160156 Z M 10.558594 32.160156 "/>
<path style=" stroke:none;fill-rule:nonzero;fill:rgb(100%,100%,100%);fill-opacity:1;" d="M 38.878906 16.320312 C 38.878906 16.585938 38.664062 16.800781 38.398438 16.800781 C 38.136719 16.800781 37.921875 16.585938 37.921875 16.320312 C 37.921875 16.054688 38.136719 15.839844 38.398438 15.839844 C 38.664062 15.839844 38.878906 16.054688 38.878906 16.320312 Z M 38.878906 16.320312 "/>
<path style=" stroke:none;fill-rule:nonzero;fill:rgb(19.607843%,19.215686%,78.039216%);fill-opacity:1;" d="M 34.703125 16.175781 L 34.703125 31.824219 C 34.703125 33.414062 33.414062 34.703125 31.824219 34.703125 L 16.175781 34.703125 C 14.585938 34.703125 13.296875 33.414062 13.296875 31.824219 L 13.296875 16.175781 C 13.296875 14.585938 14.585938 13.296875 16.175781 13.296875 L 31.824219 13.296875 C 33.414062 13.296875 34.703125 14.585938 34.703125 16.175781 Z M 34.703125 16.175781 "/>
<path style=" stroke:none;fill-rule:nonzero;fill:rgb(44.705882%,15.686275%,67.843137%);fill-opacity:1;" d="M 34.703125 23.058594 L 34.703125 31.824219 C 34.703125 33.414062 33.414062 34.703125 31.824219 34.703125 L 16.175781 34.703125 C 14.585938 34.703125 13.296875 33.414062 13.296875 31.824219 L 13.296875 16.175781 C 13.296875 14.585938 14.585938 13.296875 16.175781 13.296875 L 24.941406 13.296875 C 29.089844 15.5 32.5 18.910156 34.703125 23.058594 Z M 34.703125 23.058594 "/>
<path style=" stroke:none;fill-rule:nonzero;fill:rgb(69.411765%,11.764706%,57.647059%);fill-opacity:1;" d="M 33.601562 34.078125 C 33.601562 34.085938 33.601562 34.085938 33.601562 34.089844 C 33.109375 34.472656 32.496094 34.703125 31.824219 34.703125 L 16.175781 34.703125 C 14.585938 34.703125 13.296875 33.414062 13.296875 31.824219 L 13.296875 16.175781 C 13.296875 15.503906 13.527344 14.890625 13.910156 14.398438 C 13.914062 14.398438 13.914062 14.398438 13.921875 14.398438 C 24.789062 14.398438 33.601562 23.210938 33.601562 34.078125 Z M 33.601562 34.078125 "/>
<path style=" stroke:none;fill-rule:nonzero;fill:rgb(85.882353%,10.196078%,34.509804%);fill-opacity:1;" d="M 29.761719 34.078125 C 29.761719 34.292969 29.753906 34.496094 29.746094 34.703125 L 16.175781 34.703125 C 14.585938 34.703125 13.296875 33.414062 13.296875 31.824219 L 13.296875 18.253906 C 13.503906 18.246094 13.707031 18.238281 13.921875 18.238281 C 22.671875 18.238281 29.761719 25.328125 29.761719 34.078125 Z M 29.761719 34.078125 "/>
<path style=" stroke:none;fill-rule:nonzero;fill:rgb(89.411765%,15.294118%,24.313725%);fill-opacity:1;" d="M 25.921875 34.078125 C 25.921875 34.285156 25.914062 34.496094 25.90625 34.703125 L 16.175781 34.703125 C 14.585938 34.703125 13.296875 33.414062 13.296875 31.824219 L 13.296875 22.09375 C 13.503906 22.085938 13.714844 22.078125 13.921875 22.078125 C 20.546875 22.078125 25.921875 27.453125 25.921875 34.078125 Z M 25.921875 34.078125 "/>
<path style=" stroke:none;fill-rule:nonzero;fill:rgb(95.686275%,48.627451%,13.333333%);fill-opacity:1;" d="M 22.558594 34.078125 C 22.558594 34.292969 22.550781 34.496094 22.535156 34.703125 L 16.175781 34.703125 C 14.585938 34.703125 13.296875 33.414062 13.296875 31.824219 L 13.296875 25.464844 C 13.503906 25.449219 13.707031 25.441406 13.921875 25.441406 C 18.691406 25.441406 22.558594 29.308594 22.558594 34.078125 Z M 22.558594 34.078125 "/>
<path style=" stroke:none;fill-rule:nonzero;fill:rgb(93.72549%,60%,13.333333%);fill-opacity:1;" d="M 19.679688 34.078125 C 19.679688 34.292969 19.671875 34.496094 19.644531 34.703125 L 16.175781 34.703125 C 14.585938 34.703125 13.296875 33.414062 13.296875 31.824219 L 13.296875 28.355469 C 13.503906 28.328125 13.707031 28.320312 13.921875 28.320312 C 17.101562 28.320312 19.679688 30.898438 19.679688 34.078125 Z M 19.679688 34.078125 "/>
<path style=" stroke:none;fill-rule:nonzero;fill:rgb(27.843137%,16.862745%,16.078431%);fill-opacity:1;" d="M 31.824219 35.039062 L 16.175781 35.039062 C 14.402344 35.039062 12.960938 33.597656 12.960938 31.824219 L 12.960938 16.175781 C 12.960938 14.402344 14.402344 12.960938 16.175781 12.960938 L 31.824219 12.960938 C 33.597656 12.960938 35.039062 14.402344 35.039062 16.175781 L 35.039062 31.824219 C 35.039062 33.597656 33.597656 35.039062 31.824219 35.039062 Z M 16.175781 13.632812 C 14.773438 13.632812 13.632812 14.773438 13.632812 16.175781 L 13.632812 31.824219 C 13.632812 33.226562 14.773438 34.367188 16.175781 34.367188 L 31.824219 34.367188 C 33.226562 34.367188 34.367188 33.226562 34.367188 31.824219 L 34.367188 16.175781 C 34.367188 14.773438 33.226562 13.632812 31.824219 13.632812 Z M 16.175781 13.632812 "/>
<path style=" stroke:none;fill-rule:nonzero;fill:rgb(100%,100%,100%);fill-opacity:1;" d="M 23.996094 31.414062 C 22.082031 31.414062 21.371094 31.410156 20.644531 31.378906 C 19.980469 31.347656 19.460938 31.246094 18.964844 31.050781 C 18.480469 30.867188 18.101562 30.621094 17.738281 30.257812 C 17.375 29.894531 17.128906 29.515625 16.941406 29.03125 C 16.753906 28.546875 16.652344 28.027344 16.617188 27.347656 C 16.585938 26.617188 16.578125 25.90625 16.578125 24 C 16.578125 22.097656 16.585938 21.386719 16.617188 20.65625 C 16.648438 19.988281 16.746094 19.46875 16.941406 18.972656 C 17.128906 18.484375 17.375 18.105469 17.738281 17.746094 C 18.101562 17.386719 18.476562 17.140625 18.964844 16.953125 C 19.460938 16.757812 19.980469 16.65625 20.644531 16.625 C 21.398438 16.59375 22.117188 16.582031 23.996094 16.582031 C 25.875 16.582031 26.59375 16.59375 27.339844 16.625 C 28.003906 16.65625 28.523438 16.757812 29.023438 16.953125 C 29.511719 17.140625 29.890625 17.386719 30.246094 17.746094 C 30.605469 18.101562 30.851562 18.480469 31.046875 18.972656 C 31.238281 19.476562 31.339844 19.996094 31.367188 20.65625 C 31.402344 21.414062 31.410156 22.132812 31.410156 24 C 31.410156 25.871094 31.402344 26.589844 31.367188 27.347656 C 31.339844 28.007812 31.238281 28.527344 31.046875 29.03125 C 30.851562 29.519531 30.605469 29.898438 30.246094 30.253906 C 29.890625 30.617188 29.515625 30.863281 29.027344 31.050781 C 28.523438 31.246094 28.003906 31.347656 27.339844 31.375 C 26.613281 31.410156 25.902344 31.414062 23.996094 31.414062 Z M 23.367188 17.976562 C 22.046875 17.976562 21.320312 17.984375 20.691406 18.015625 C 20.046875 18.042969 19.691406 18.152344 19.453125 18.242188 C 19.15625 18.359375 18.945312 18.496094 18.722656 18.722656 C 18.496094 18.945312 18.359375 19.15625 18.246094 19.449219 C 18.152344 19.6875 18.042969 20.042969 18.015625 20.691406 C 17.980469 21.414062 17.976562 22.078125 17.976562 23.996094 C 17.976562 25.914062 17.980469 26.582031 18.015625 27.304688 C 18.042969 27.945312 18.152344 28.300781 18.242188 28.539062 C 18.359375 28.835938 18.496094 29.050781 18.71875 29.273438 C 18.945312 29.496094 19.160156 29.632812 19.453125 29.75 C 19.683594 29.839844 20.03125 29.945312 20.691406 29.976562 C 21.4375 30.011719 22.148438 30.019531 23.996094 30.019531 C 25.847656 30.019531 26.558594 30.011719 27.304688 29.976562 C 27.980469 29.945312 28.335938 29.832031 28.546875 29.746094 C 28.835938 29.636719 29.046875 29.5 29.273438 29.277344 C 29.496094 29.050781 29.632812 28.835938 29.753906 28.542969 C 29.84375 28.308594 29.945312 27.957031 29.976562 27.304688 C 30.011719 26.550781 30.019531 25.839844 30.019531 23.996094 C 30.019531 22.15625 30.011719 21.445312 29.976562 20.691406 C 29.949219 20.039062 29.84375 19.6875 29.753906 19.457031 C 29.640625 19.160156 29.5 18.949219 29.277344 18.726562 C 29.039062 18.488281 28.84375 18.363281 28.535156 18.246094 C 28.3125 18.15625 27.96875 18.050781 27.308594 18.019531 C 26.570312 17.984375 25.859375 17.976562 23.996094 17.976562 Z M 23.367188 17.976562 "/>
<path style=" stroke:none;fill-rule:nonzero;fill:rgb(27.843137%,16.862745%,16.078431%);fill-opacity:1;" d="M 23.996094 16.703125 C 25.871094 16.703125 26.589844 16.714844 27.335938 16.746094 C 27.988281 16.777344 28.492188 16.875 28.980469 17.0625 C 29.453125 17.246094 29.816406 17.484375 30.164062 17.835938 C 30.507812 18.175781 30.746094 18.539062 30.933594 19.015625 C 31.121094 19.507812 31.21875 20.011719 31.25 20.660156 C 31.28125 21.417969 31.292969 22.136719 31.292969 24 C 31.292969 25.867188 31.28125 26.585938 31.25 27.34375 C 31.21875 27.992188 31.121094 28.5 30.9375 28.984375 C 30.746094 29.460938 30.507812 29.824219 30.160156 30.171875 C 29.816406 30.519531 29.453125 30.757812 28.984375 30.941406 C 28.492188 31.128906 27.984375 31.226562 27.335938 31.257812 C 26.609375 31.289062 25.902344 31.296875 23.996094 31.296875 C 22.085938 31.296875 21.375 31.289062 20.652344 31.257812 C 20 31.226562 19.492188 31.132812 19.007812 30.941406 C 18.539062 30.761719 18.175781 30.523438 17.824219 30.171875 C 17.472656 29.820312 17.238281 29.457031 17.054688 28.988281 C 16.871094 28.515625 16.773438 28.007812 16.738281 27.34375 C 16.703125 26.613281 16.699219 25.902344 16.699219 24 C 16.699219 22.097656 16.703125 21.390625 16.738281 20.660156 C 16.765625 20.007812 16.863281 19.5 17.054688 19.015625 C 17.238281 18.542969 17.472656 18.175781 17.824219 17.832031 C 18.171875 17.484375 18.539062 17.246094 19.007812 17.0625 C 19.492188 16.875 20 16.777344 20.652344 16.746094 C 21.402344 16.714844 22.121094 16.703125 23.996094 16.703125 M 23.996094 30.140625 C 25.847656 30.140625 26.5625 30.128906 27.3125 30.097656 C 28.003906 30.0625 28.371094 29.945312 28.585938 29.859375 C 28.894531 29.742188 29.117188 29.597656 29.359375 29.359375 C 29.59375 29.121094 29.738281 28.898438 29.863281 28.582031 C 29.957031 28.34375 30.066406 27.980469 30.097656 27.3125 C 30.128906 26.554688 30.140625 25.839844 30.140625 23.996094 C 30.140625 22.152344 30.128906 21.441406 30.097656 20.683594 C 30.066406 20.015625 29.957031 19.65625 29.863281 19.414062 C 29.746094 19.101562 29.59375 18.871094 29.359375 18.636719 C 29.113281 18.394531 28.898438 18.257812 28.582031 18.132812 C 28.347656 18.042969 27.992188 17.929688 27.3125 17.898438 C 26.574219 17.863281 25.859375 17.855469 23.996094 17.855469 L 23.367188 17.855469 C 22.042969 17.855469 21.316406 17.867188 20.683594 17.894531 C 20.023438 17.925781 19.65625 18.035156 19.410156 18.128906 C 19.101562 18.25 18.871094 18.402344 18.636719 18.636719 C 18.402344 18.867188 18.25 19.097656 18.132812 19.40625 C 18.035156 19.652344 17.925781 20.019531 17.894531 20.683594 C 17.859375 21.410156 17.855469 22.074219 17.855469 23.996094 C 17.855469 25.917969 17.859375 26.585938 17.894531 27.308594 C 17.925781 27.96875 18.035156 28.335938 18.128906 28.582031 C 18.25 28.894531 18.398438 29.121094 18.632812 29.355469 C 18.871094 29.589844 19.101562 29.738281 19.410156 29.859375 C 19.648438 29.953125 20.007812 30.0625 20.683594 30.09375 C 21.433594 30.128906 22.144531 30.140625 23.996094 30.140625 M 23.996094 16.464844 C 22.078125 16.464844 21.378906 16.472656 20.640625 16.507812 C 19.960938 16.539062 19.429688 16.640625 18.921875 16.839844 C 18.417969 17.035156 18.027344 17.289062 17.652344 17.664062 C 17.28125 18.03125 17.023438 18.421875 16.832031 18.929688 C 16.628906 19.4375 16.527344 19.96875 16.496094 20.648438 C 16.464844 21.386719 16.460938 22.097656 16.460938 24 C 16.460938 25.90625 16.464844 26.617188 16.496094 27.355469 C 16.535156 28.046875 16.636719 28.578125 16.832031 29.074219 C 17.027344 29.574219 17.28125 29.96875 17.652344 30.339844 C 18.03125 30.71875 18.421875 30.972656 18.921875 31.164062 C 19.429688 31.363281 19.960938 31.46875 20.640625 31.496094 C 21.378906 31.53125 22.089844 31.535156 23.996094 31.535156 C 25.894531 31.535156 26.605469 31.53125 27.34375 31.496094 C 28.023438 31.46875 28.554688 31.363281 29.070312 31.164062 C 29.574219 30.96875 29.964844 30.714844 30.332031 30.339844 C 30.703125 29.972656 30.957031 29.582031 31.160156 29.074219 C 31.355469 28.558594 31.457031 28.027344 31.488281 27.355469 C 31.523438 26.617188 31.53125 25.914062 31.53125 24 C 31.53125 22.089844 31.523438 21.386719 31.488281 20.648438 C 31.457031 19.976562 31.359375 19.445312 31.160156 18.929688 C 30.957031 18.417969 30.703125 18.027344 30.332031 17.664062 C 29.960938 17.289062 29.574219 17.035156 29.066406 16.839844 C 28.554688 16.640625 28.023438 16.539062 27.34375 16.507812 C 26.613281 16.472656 25.910156 16.464844 23.996094 16.464844 Z M 23.996094 29.898438 C 22.152344 29.898438 21.441406 29.890625 20.695312 29.855469 C 20.054688 29.828125 19.71875 29.722656 19.496094 29.636719 C 19.21875 29.527344 19.015625 29.398438 18.804688 29.1875 C 18.589844 28.976562 18.464844 28.78125 18.355469 28.496094 C 18.265625 28.269531 18.164062 27.921875 18.132812 27.300781 C 18.101562 26.582031 18.097656 25.917969 18.097656 23.996094 C 18.097656 22.078125 18.101562 21.410156 18.132812 20.695312 C 18.164062 20.066406 18.265625 19.722656 18.355469 19.492188 C 18.464844 19.214844 18.59375 19.015625 18.804688 18.804688 C 19.015625 18.59375 19.21875 18.464844 19.496094 18.355469 C 19.722656 18.265625 20.066406 18.164062 20.695312 18.132812 C 21.320312 18.105469 22.046875 18.097656 23.367188 18.097656 L 23.996094 18.097656 C 25.855469 18.097656 26.566406 18.105469 27.300781 18.136719 C 27.945312 18.167969 28.277344 18.269531 28.492188 18.359375 C 28.785156 18.46875 28.96875 18.585938 29.191406 18.808594 C 29.402344 19.019531 29.53125 19.21875 29.640625 19.5 C 29.726562 19.722656 29.828125 20.0625 29.855469 20.695312 C 29.890625 21.441406 29.898438 22.152344 29.898438 23.996094 C 29.898438 25.84375 29.890625 26.554688 29.855469 27.300781 C 29.828125 27.933594 29.726562 28.273438 29.640625 28.5 C 29.527344 28.78125 29.398438 28.976562 29.1875 29.191406 C 28.972656 29.402344 28.78125 29.527344 28.5 29.636719 C 28.296875 29.71875 27.957031 29.828125 27.300781 29.855469 C 26.554688 29.890625 25.84375 29.898438 23.996094 29.898438 Z M 23.996094 29.898438 "/>
<path style=" stroke:none;fill-rule:nonzero;fill:rgb(100%,100%,100%);fill-opacity:1;" d="M 28.078125 20.761719 C 27.617188 20.761719 27.238281 20.382812 27.238281 19.921875 C 27.238281 19.457031 27.617188 19.078125 28.078125 19.078125 L 28.082031 19.078125 C 28.304688 19.078125 28.515625 19.167969 28.671875 19.324219 C 28.832031 19.484375 28.921875 19.695312 28.921875 19.917969 C 28.921875 20.382812 28.542969 20.761719 28.078125 20.761719 Z M 28.078125 20.761719 "/>
<path style=" stroke:none;fill-rule:nonzero;fill:rgb(27.843137%,16.862745%,16.078431%);fill-opacity:1;" d="M 28.078125 19.199219 C 28.476562 19.199219 28.800781 19.523438 28.800781 19.921875 C 28.800781 20.316406 28.476562 20.640625 28.078125 20.640625 C 27.683594 20.640625 27.359375 20.316406 27.359375 19.921875 C 27.359375 19.523438 27.683594 19.199219 28.078125 19.199219 M 28.078125 18.960938 C 27.550781 18.960938 27.121094 19.390625 27.121094 19.921875 C 27.121094 20.449219 27.550781 20.878906 28.078125 20.878906 C 28.609375 20.878906 29.039062 20.449219 29.039062 19.921875 C 29.039062 19.390625 28.609375 18.960938 28.078125 18.960938 Z M 28.078125 18.960938 "/>
<path style=" stroke:none;fill-rule:nonzero;fill:rgb(100%,100%,100%);fill-opacity:1;" d="M 23.996094 19.921875 C 21.742188 19.921875 19.914062 21.75 19.914062 24.003906 C 19.914062 26.257812 21.742188 28.082031 23.996094 28.082031 C 26.246094 28.082031 28.074219 26.253906 28.074219 24.003906 C 28.074219 21.75 26.246094 19.921875 23.996094 19.921875 Z M 23.996094 21.363281 C 25.453125 21.363281 26.632812 22.542969 26.632812 24.003906 C 26.632812 25.460938 25.453125 26.640625 23.996094 26.640625 C 22.535156 26.640625 21.355469 25.460938 21.355469 24.003906 C 21.355469 22.542969 22.535156 21.363281 23.996094 21.363281 Z M 23.996094 21.363281 "/>
<path style=" stroke:none;fill-rule:nonzero;fill:rgb(27.843137%,16.862745%,16.078431%);fill-opacity:1;" d="M 23.996094 28.203125 C 21.679688 28.203125 19.792969 26.316406 19.792969 24 C 19.792969 21.6875 21.679688 19.800781 23.996094 19.800781 C 26.308594 19.800781 28.195312 21.6875 28.195312 24 C 28.195312 26.316406 26.308594 28.203125 23.996094 28.203125 Z M 23.996094 20.042969 C 21.808594 20.042969 20.035156 21.820312 20.035156 24 C 20.035156 26.183594 21.808594 27.960938 23.996094 27.960938 C 26.179688 27.960938 27.953125 26.183594 27.953125 24 C 27.953125 21.820312 26.179688 20.042969 23.996094 20.042969 Z M 23.996094 26.761719 C 22.472656 26.761719 21.234375 25.523438 21.234375 24 C 21.234375 22.480469 22.472656 21.242188 23.996094 21.242188 C 25.515625 21.242188 26.753906 22.480469 26.753906 24 C 26.753906 25.523438 25.515625 26.761719 23.996094 26.761719 Z M 23.996094 21.480469 C 22.605469 21.480469 21.472656 22.613281 21.472656 24 C 21.472656 25.390625 22.605469 26.523438 23.996094 26.523438 C 25.382812 26.523438 26.515625 25.390625 26.515625 24 C 26.515625 22.613281 25.382812 21.480469 23.996094 21.480469 Z M 23.996094 21.480469 "/>
</g>
</svg>
