<?xml version="1.0" encoding="UTF-8"?>
<svg xmlns="http://www.w3.org/2000/svg" xmlns:xlink="http://www.w3.org/1999/xlink" width="48pt" height="48pt" viewBox="0 0 48 48" version="1.1">
<g id="surface694">
<path style=" stroke:none;fill-rule:nonzero;fill:rgb(11, 148, 70);fill-opacity:1;" d="M 24 2 C 14.625 2 7 9.625 7 19 C 7 25.746094 15.417969 37.699219 20.4375 44.222656 C 21.296875 45.339844 22.59375 45.976562 24 45.976562 C 25.40625 45.976562 26.703125 45.339844 27.5625 44.222656 C 32.582031 37.699219 41 25.746094 41 19 C 41 9.625 33.375 2 24 2 Z M 31 25 C 31 25.550781 30.550781 26 30 26 L 27 26 C 26.449219 26 26 25.550781 26 25 L 26 21 C 26 20.449219 25.550781 20 25 20 L 23 20 C 22.449219 20 22 20.449219 22 21 L 22 25 C 22 25.550781 21.550781 26 21 26 L 18 26 C 17.449219 26 17 25.550781 17 25 L 17 17.214844 C 17 16.601562 17.28125 16.019531 17.761719 15.640625 L 23.367188 11.226562 C 23.738281 10.933594 24.261719 10.933594 24.632812 11.226562 L 30.238281 15.640625 C 30.71875 16.019531 31 16.601562 31 17.214844 Z M 31 25 "/>
</g>
</svg>
