<?xml version="1.0" encoding="UTF-8"?>
<svg xmlns="http://www.w3.org/2000/svg" xmlns:xlink="http://www.w3.org/1999/xlink" width="48pt" height="48pt" viewBox="0 0 48 48" version="1.1">
<g id="surface1390">
<path style=" stroke:none;fill-rule:nonzero;fill:rgb(207, 28, 68);fill-opacity:1;" d="M 8.640625 2.878906 C 7.058594 2.878906 5.761719 4.179688 5.761719 5.761719 L 5.761719 42.238281 C 5.761719 43.820312 7.058594 45.121094 8.640625 45.121094 L 27.839844 45.121094 C 29.417969 45.121094 30.71875 43.820312 30.71875 42.238281 L 30.71875 5.761719 C 30.71875 4.179688 29.417969 2.878906 27.839844 2.878906 Z M 7.679688 9.601562 L 28.800781 9.601562 L 28.800781 37.441406 L 7.679688 37.441406 Z M 15.359375 40.320312 L 21.121094 40.320312 C 21.695312 40.320312 22.078125 40.703125 22.078125 41.28125 C 22.078125 41.855469 21.695312 42.238281 21.121094 42.238281 L 15.359375 42.238281 C 14.785156 42.238281 14.398438 41.855469 14.398438 41.28125 C 14.398438 40.703125 14.785156 40.320312 15.359375 40.320312 Z M 15.359375 40.320312 "/>
</g>
</svg>
